<mxfile host="Electron" agent="Mozilla/5.0 (X11; Linux x86_64) AppleWebKit/537.36 (KHTML, like Gecko) draw.io/28.0.6 Chrome/138.0.7204.100 Electron/37.2.3 Safari/537.36" version="28.0.6">
  <diagram name="Page-1" id="lND-QSQxQTkuNe-5z4FQ">
    <mxGraphModel dx="1665" dy="918" grid="1" gridSize="10" guides="1" tooltips="1" connect="1" arrows="1" fold="1" page="0" pageScale="1" pageWidth="1600" pageHeight="1200" background="#ffffff" math="0" shadow="0">
      <root>
        <mxCell id="0" />
        <mxCell id="1" parent="0" />
        <mxCell id="pety45B3u8wGdrX-bXSJ-15" value="skos:definition" style="edgeStyle=orthogonalEdgeStyle;rounded=0;orthogonalLoop=1;jettySize=auto;html=1;exitX=1;exitY=0.5;exitDx=0;exitDy=0;entryX=0.5;entryY=1;entryDx=0;entryDy=0;" parent="1" source="pety45B3u8wGdrX-bXSJ-1" target="pety45B3u8wGdrX-bXSJ-14" edge="1">
          <mxGeometry relative="1" as="geometry" />
        </mxCell>
        <mxCell id="pety45B3u8wGdrX-bXSJ-1" value="&lt;span&gt;mds:HappyPerson&lt;/span&gt;" style="rounded=1;whiteSpace=wrap;html=1;align=center;verticalAlign=middle;fontFamily=Helvetica;fontSize=11;labelBackgroundColor=none;resizable=0;fillColor=#d5e8d4;strokeColor=#82b366;strokeWidth=2;enumerate=0;" parent="1" vertex="1">
          <mxGeometry x="1105" y="475" width="120" height="60" as="geometry" />
        </mxCell>
        <mxCell id="pety45B3u8wGdrX-bXSJ-2" value="&lt;span style=&quot;font-size: 12px;&quot;&gt;cco:Person&lt;/span&gt;" style="rounded=1;whiteSpace=wrap;html=1;align=center;verticalAlign=middle;fontFamily=Helvetica;fontSize=11;labelBackgroundColor=none;resizable=1;fillColor=#fff2cc;strokeColor=#d6b656;strokeWidth=2;arcSize=0;movable=1;rotatable=1;deletable=1;editable=1;locked=0;connectable=1;enumerate=0;" parent="1" vertex="1">
          <mxGeometry x="1090" y="350" width="150" height="60" as="geometry" />
        </mxCell>
        <mxCell id="pety45B3u8wGdrX-bXSJ-3" value="" style="endArrow=classic;html=1;rounded=0;strokeColor=#000000;fontFamily=Helvetica;fontSize=11;fontColor=#111111;labelBackgroundColor=#FFFFFF;resizable=0;entryX=0.5;entryY=1;entryDx=0;entryDy=0;exitX=0.5;exitY=0;exitDx=0;exitDy=0;enumerate=0;" parent="1" source="pety45B3u8wGdrX-bXSJ-1" target="pety45B3u8wGdrX-bXSJ-2" edge="1">
          <mxGeometry relative="1" as="geometry">
            <mxPoint x="1045" y="460" as="sourcePoint" />
            <mxPoint x="1145" y="460" as="targetPoint" />
          </mxGeometry>
        </mxCell>
        <mxCell id="pety45B3u8wGdrX-bXSJ-4" value="rdfs:subClassOf" style="edgeLabel;resizable=0;;align=center;verticalAlign=middle;html=1;labelBackgroundColor=#FFFFFF;fontColor=#111111;fontFamily=Helvetica;fontSize=11;fillColor=none;gradientColor=none;" parent="pety45B3u8wGdrX-bXSJ-3" connectable="0" vertex="1">
          <mxGeometry relative="1" as="geometry" />
        </mxCell>
        <mxCell id="pety45B3u8wGdrX-bXSJ-8" value="if importing a term, just use the correct prefix" style="text;html=1;align=center;verticalAlign=middle;whiteSpace=wrap;rounded=0;" parent="1" vertex="1">
          <mxGeometry x="930" y="347.5" width="130" height="65" as="geometry" />
        </mxCell>
        <mxCell id="pety45B3u8wGdrX-bXSJ-9" value="Properties are read directly from arrow labels. Don&#39;t slap a shape on top of the arrow and expect it work." style="text;html=1;align=center;verticalAlign=middle;whiteSpace=wrap;rounded=0;" parent="1" vertex="1">
          <mxGeometry x="850" y="430" width="240" height="30" as="geometry" />
        </mxCell>
        <mxCell id="pety45B3u8wGdrX-bXSJ-12" value="" style="edgeStyle=orthogonalEdgeStyle;rounded=0;orthogonalLoop=1;jettySize=auto;html=1;" parent="1" source="pety45B3u8wGdrX-bXSJ-11" target="pety45B3u8wGdrX-bXSJ-1" edge="1">
          <mxGeometry relative="1" as="geometry" />
        </mxCell>
        <mxCell id="pety45B3u8wGdrX-bXSJ-13" value="rdf:type" style="edgeLabel;html=1;align=center;verticalAlign=middle;resizable=0;points=[];" parent="pety45B3u8wGdrX-bXSJ-12" vertex="1" connectable="0">
          <mxGeometry x="-0.1394" y="-4" relative="1" as="geometry">
            <mxPoint as="offset" />
          </mxGeometry>
        </mxCell>
        <mxCell id="SXdeazEO2DghoHzH-gUt-23" style="edgeStyle=orthogonalEdgeStyle;rounded=0;orthogonalLoop=1;jettySize=auto;html=1;exitX=0.5;exitY=1;exitDx=0;exitDy=0;entryX=1;entryY=0.5;entryDx=0;entryDy=0;" parent="1" source="pety45B3u8wGdrX-bXSJ-11" target="SXdeazEO2DghoHzH-gUt-15" edge="1">
          <mxGeometry relative="1" as="geometry" />
        </mxCell>
        <mxCell id="SXdeazEO2DghoHzH-gUt-24" value="mds:has_catchphrase" style="edgeLabel;html=1;align=center;verticalAlign=middle;resizable=0;points=[];" parent="SXdeazEO2DghoHzH-gUt-23" vertex="1" connectable="0">
          <mxGeometry x="0.2739" y="-1" relative="1" as="geometry">
            <mxPoint as="offset" />
          </mxGeometry>
        </mxCell>
        <mxCell id="pety45B3u8wGdrX-bXSJ-11" value="&lt;span&gt;Happy Gilmore&lt;/span&gt;" style="rounded=1;whiteSpace=wrap;html=1;align=center;verticalAlign=middle;fontFamily=Helvetica;fontSize=11;labelBackgroundColor=none;resizable=0;fillColor=#dae8fc;strokeColor=#6c8ebf;strokeWidth=2;enumerate=0;" parent="1" vertex="1">
          <mxGeometry x="1105" y="580" width="120" height="60" as="geometry" />
        </mxCell>
        <mxCell id="pety45B3u8wGdrX-bXSJ-14" value="&lt;font style=&quot;font-size: 8px;&quot;&gt;&quot;&lt;font style=&quot;font-size: 8px;&quot;&gt;someone who experiences frequent positive emotions, a sense of satisfaction with their life, and a positive outlook on life&lt;/font&gt;&quot;@en&lt;/font&gt;" style="rounded=0;whiteSpace=wrap;html=1;" parent="1" vertex="1">
          <mxGeometry x="1290" y="390" width="120" height="80" as="geometry" />
        </mxCell>
        <mxCell id="pety45B3u8wGdrX-bXSJ-16" value="Literals are supported but double-quotes must be used. Avoid double-quotes inside literals." style="text;html=1;align=center;verticalAlign=middle;whiteSpace=wrap;rounded=0;" parent="1" vertex="1">
          <mxGeometry x="1285" y="320" width="135" height="65" as="geometry" />
        </mxCell>
        <mxCell id="pety45B3u8wGdrX-bXSJ-17" value="new terms just need to have prefixes defined in prefixes.json" style="text;html=1;align=center;verticalAlign=middle;whiteSpace=wrap;rounded=0;" parent="1" vertex="1">
          <mxGeometry x="930" y="490" width="130" height="30" as="geometry" />
        </mxCell>
        <mxCell id="pety45B3u8wGdrX-bXSJ-18" value="instances are detected from being a subject of rdf:type" style="text;html=1;align=center;verticalAlign=middle;whiteSpace=wrap;rounded=0;" parent="1" vertex="1">
          <mxGeometry x="930" y="595" width="130" height="30" as="geometry" />
        </mxCell>
        <mxCell id="pety45B3u8wGdrX-bXSJ-19" value="Any shape works, even this textbox. In your diagram, avoid stray shapes as they will find their way in the ontology." style="text;html=1;align=center;verticalAlign=middle;whiteSpace=wrap;rounded=0;" parent="1" vertex="1">
          <mxGeometry x="1087.5" y="260" width="155" height="75" as="geometry" />
        </mxCell>
        <mxCell id="pety45B3u8wGdrX-bXSJ-20" value="Annotation Properties also work. Just make sure to use them right." style="text;html=1;align=center;verticalAlign=middle;whiteSpace=wrap;rounded=0;" parent="1" vertex="1">
          <mxGeometry x="1240" y="510" width="130" height="65" as="geometry" />
        </mxCell>
        <mxCell id="pety45B3u8wGdrX-bXSJ-23" value="&lt;span style=&quot;font-size: 12px;&quot;&gt;cco:Nickname&lt;/span&gt;" style="rounded=1;whiteSpace=wrap;html=1;align=center;verticalAlign=middle;fontFamily=Helvetica;fontSize=11;labelBackgroundColor=none;resizable=1;fillColor=#fff2cc;strokeColor=#d6b656;strokeWidth=2;arcSize=0;movable=1;rotatable=1;deletable=1;editable=1;locked=0;connectable=1;enumerate=0;" parent="1" vertex="1">
          <mxGeometry x="1870" y="390" width="150" height="60" as="geometry" />
        </mxCell>
        <mxCell id="pety45B3u8wGdrX-bXSJ-25" value="&lt;b&gt;DANGER&lt;/b&gt;: Do not use this file for input. Use the designated files for testing the package. That has the same terms and relationships without the guide text." style="rounded=0;whiteSpace=wrap;html=1;fillColor=#f8cecc;strokeColor=#b85450;fontSize=24;dashed=1;strokeWidth=5;" parent="1" vertex="1">
          <mxGeometry x="650" y="80" width="880" height="110" as="geometry" />
        </mxCell>
        <mxCell id="pety45B3u8wGdrX-bXSJ-30" value="rdf:type" style="edgeStyle=orthogonalEdgeStyle;rounded=0;orthogonalLoop=1;jettySize=auto;html=1;" parent="1" source="pety45B3u8wGdrX-bXSJ-26" target="pety45B3u8wGdrX-bXSJ-23" edge="1">
          <mxGeometry relative="1" as="geometry" />
        </mxCell>
        <mxCell id="pety45B3u8wGdrX-bXSJ-31" value="cco:designates" style="edgeStyle=isometricEdgeStyle;rounded=0;orthogonalLoop=1;jettySize=auto;html=1;exitX=0.5;exitY=1;exitDx=0;exitDy=0;entryX=1;entryY=0.5;entryDx=0;entryDy=0;" parent="1" source="pety45B3u8wGdrX-bXSJ-26" target="pety45B3u8wGdrX-bXSJ-11" edge="1">
          <mxGeometry relative="1" as="geometry">
            <Array as="points">
              <mxPoint x="1330" y="670" />
              <mxPoint x="1430" y="680" />
            </Array>
          </mxGeometry>
        </mxCell>
        <mxCell id="pety45B3u8wGdrX-bXSJ-33" value="cco:is_tokenized_by" style="edgeStyle=orthogonalEdgeStyle;rounded=0;orthogonalLoop=1;jettySize=auto;html=1;exitX=0.5;exitY=1;exitDx=0;exitDy=0;entryX=0.5;entryY=0;entryDx=0;entryDy=0;" parent="1" source="pety45B3u8wGdrX-bXSJ-26" target="pety45B3u8wGdrX-bXSJ-32" edge="1">
          <mxGeometry relative="1" as="geometry" />
        </mxCell>
        <mxCell id="pety45B3u8wGdrX-bXSJ-26" value="&lt;span style=&quot;font-size: 12px;&quot;&gt;Nickname of Happy Gilmore&lt;/span&gt;" style="rounded=1;whiteSpace=wrap;html=1;align=center;verticalAlign=middle;fontFamily=Helvetica;fontSize=11;labelBackgroundColor=none;resizable=1;fillColor=#f8cecc;strokeColor=#b85450;strokeWidth=2;arcSize=0;movable=1;rotatable=1;deletable=1;editable=1;locked=0;connectable=1;enumerate=0;" parent="1" vertex="1">
          <mxGeometry x="1870" y="510" width="150" height="60" as="geometry" />
        </mxCell>
        <mxCell id="pety45B3u8wGdrX-bXSJ-27" value="Font styles and html don&#39;t get read and will not affect parsing. Place spaces before line breaks though, the breaks will be deleted." style="text;html=1;align=center;verticalAlign=middle;whiteSpace=wrap;rounded=0;" parent="1" vertex="1">
          <mxGeometry x="1870" y="270" width="130" height="105" as="geometry" />
        </mxCell>
        <mxCell id="pety45B3u8wGdrX-bXSJ-32" value="&quot;Happy&quot;^^xsd:string" style="rounded=1;whiteSpace=wrap;html=1;align=center;verticalAlign=middle;fontFamily=Helvetica;fontSize=11;labelBackgroundColor=none;resizable=1;strokeWidth=2;arcSize=0;movable=1;rotatable=1;deletable=1;editable=1;locked=0;connectable=1;enumerate=0;" parent="1" vertex="1">
          <mxGeometry x="1870" y="700" width="150" height="60" as="geometry" />
        </mxCell>
        <mxCell id="pety45B3u8wGdrX-bXSJ-35" value="Line types and waypoints shouldn&#39;t affect the connection. Just make sure you&#39;re still using one arrow." style="text;html=1;align=center;verticalAlign=middle;whiteSpace=wrap;rounded=0;" parent="1" vertex="1">
          <mxGeometry x="1330" y="736.25" width="130" height="105" as="geometry" />
        </mxCell>
        <mxCell id="SXdeazEO2DghoHzH-gUt-1" value="&lt;span style=&quot;font-size: 12px;&quot;&gt;cco:ICE&lt;/span&gt;" style="rounded=1;whiteSpace=wrap;html=1;align=center;verticalAlign=middle;fontFamily=Helvetica;fontSize=11;labelBackgroundColor=none;resizable=1;fillColor=#fff2cc;strokeColor=#d6b656;strokeWidth=2;arcSize=0;movable=1;rotatable=1;deletable=1;editable=1;locked=0;connectable=1;enumerate=0;" parent="1" vertex="1">
          <mxGeometry x="580" y="350" width="150" height="60" as="geometry" />
        </mxCell>
        <mxCell id="SXdeazEO2DghoHzH-gUt-4" value="Adjusting endpoint arrows instead or applying reverse has not been tested. Please stick to redrawing them instead." style="text;html=1;align=center;verticalAlign=middle;whiteSpace=wrap;rounded=0;" parent="1" vertex="1">
          <mxGeometry x="815" y="760" width="130" height="105" as="geometry" />
        </mxCell>
        <mxCell id="SXdeazEO2DghoHzH-gUt-6" value="rdfs:subclassOf" style="edgeStyle=orthogonalEdgeStyle;rounded=0;orthogonalLoop=1;jettySize=auto;html=1;" parent="1" source="SXdeazEO2DghoHzH-gUt-5" target="SXdeazEO2DghoHzH-gUt-1" edge="1">
          <mxGeometry relative="1" as="geometry" />
        </mxCell>
        <mxCell id="SXdeazEO2DghoHzH-gUt-13" value="skos:definition" style="edgeStyle=orthogonalEdgeStyle;rounded=0;orthogonalLoop=1;jettySize=auto;html=1;exitX=0;exitY=0.5;exitDx=0;exitDy=0;entryX=1;entryY=0.5;entryDx=0;entryDy=0;" parent="1" source="SXdeazEO2DghoHzH-gUt-5" target="SXdeazEO2DghoHzH-gUt-7" edge="1">
          <mxGeometry relative="1" as="geometry" />
        </mxCell>
        <mxCell id="SXdeazEO2DghoHzH-gUt-5" value="&lt;span&gt;mds:CatchPhrase (catch phrase, slogan)&lt;/span&gt;" style="rounded=1;whiteSpace=wrap;html=1;align=center;verticalAlign=middle;fontFamily=Helvetica;fontSize=11;labelBackgroundColor=none;resizable=0;fillColor=#f8cecc;strokeColor=#b85450;strokeWidth=2;enumerate=0;" parent="1" vertex="1">
          <mxGeometry x="595" y="477.5" width="120" height="60" as="geometry" />
        </mxCell>
        <mxCell id="SXdeazEO2DghoHzH-gUt-7" value="&lt;span&gt;&quot;a well-known sentence or phrase, especially one that is associated with a particular famous person.&quot;@en&lt;/span&gt;" style="rounded=0;whiteSpace=wrap;html=1;fontSize=11;" parent="1" vertex="1">
          <mxGeometry x="320" y="512.5" width="120" height="80" as="geometry" />
        </mxCell>
        <mxCell id="SXdeazEO2DghoHzH-gUt-14" value="People make mistakes. misspellings or miscaptializations still match; but beware. Shorter strings are harder to match." style="text;html=1;align=center;verticalAlign=middle;whiteSpace=wrap;rounded=0;" parent="1" vertex="1">
          <mxGeometry x="330" y="417.5" width="260" height="60" as="geometry" />
        </mxCell>
        <mxCell id="SXdeazEO2DghoHzH-gUt-22" value="cco:is_tokenized_by" style="edgeStyle=orthogonalEdgeStyle;rounded=0;orthogonalLoop=1;jettySize=auto;html=1;" parent="1" source="SXdeazEO2DghoHzH-gUt-15" target="SXdeazEO2DghoHzH-gUt-21" edge="1">
          <mxGeometry relative="1" as="geometry" />
        </mxCell>
        <mxCell id="SXdeazEO2DghoHzH-gUt-28" value="rdf:type" style="edgeStyle=orthogonalEdgeStyle;rounded=0;orthogonalLoop=1;jettySize=auto;html=1;exitX=0.5;exitY=0;exitDx=0;exitDy=0;entryX=0.5;entryY=1;entryDx=0;entryDy=0;" parent="1" source="SXdeazEO2DghoHzH-gUt-15" target="SXdeazEO2DghoHzH-gUt-5" edge="1">
          <mxGeometry relative="1" as="geometry" />
        </mxCell>
        <mxCell id="SXdeazEO2DghoHzH-gUt-15" value="&lt;span&gt;Catch Phrase of Happy Gilmore&lt;/span&gt;" style="rounded=1;whiteSpace=wrap;html=1;align=center;verticalAlign=middle;fontFamily=Helvetica;fontSize=11;labelBackgroundColor=none;resizable=0;fillColor=#dae8fc;strokeColor=#6c8ebf;strokeWidth=2;enumerate=0;" parent="1" vertex="1">
          <mxGeometry x="595" y="722.5" width="120" height="60" as="geometry" />
        </mxCell>
        <mxCell id="SXdeazEO2DghoHzH-gUt-17" value="Colors don&#39;t get read and are not part of the input. You can organize your terms with colors if you want." style="text;html=1;align=center;verticalAlign=middle;whiteSpace=wrap;rounded=0;" parent="1" vertex="1">
          <mxGeometry x="2050" y="502.5" width="180" height="85" as="geometry" />
        </mxCell>
        <mxCell id="SXdeazEO2DghoHzH-gUt-21" value="&quot;¿Por que no te vas a casa? ¡Eso es tu casa&quot;@es" style="rounded=1;whiteSpace=wrap;html=1;align=center;verticalAlign=middle;fontFamily=Helvetica;fontSize=11;labelBackgroundColor=none;resizable=1;strokeWidth=2;arcSize=0;movable=1;rotatable=1;deletable=1;editable=1;locked=0;connectable=1;enumerate=0;" parent="1" vertex="1">
          <mxGeometry x="290" y="722.5" width="150" height="60" as="geometry" />
        </mxCell>
        <mxCell id="SXdeazEO2DghoHzH-gUt-25" value="custom properties also work, but they will be treated as object properties if not defined." style="text;html=1;align=center;verticalAlign=middle;whiteSpace=wrap;rounded=0;" parent="1" vertex="1">
          <mxGeometry x="1020" y="760" width="150" height="70" as="geometry" />
        </mxCell>
        <mxCell id="SXdeazEO2DghoHzH-gUt-29" value="Only one value in a literal box" style="text;html=1;align=center;verticalAlign=middle;whiteSpace=wrap;rounded=0;" parent="1" vertex="1">
          <mxGeometry x="200" y="736.25" width="70" height="32.5" as="geometry" />
        </mxCell>
        <mxCell id="SXdeazEO2DghoHzH-gUt-30" value="Terms without prefixes get assigned our default namespace &lt;b&gt;mds&lt;/b&gt;" style="text;html=1;align=center;verticalAlign=middle;whiteSpace=wrap;rounded=0;" parent="1" vertex="1">
          <mxGeometry x="500" y="635.58" width="120" height="96.92" as="geometry" />
        </mxCell>
        <mxCell id="SXdeazEO2DghoHzH-gUt-31" value="labels and alt labels are assigned by parenthesis. Thef first one is always the label" style="text;html=1;align=center;verticalAlign=middle;whiteSpace=wrap;rounded=0;" parent="1" vertex="1">
          <mxGeometry x="730" y="477.5" width="130" height="67.5" as="geometry" />
        </mxCell>
        <mxCell id="K3G7bkNG8lY27Z329QrO-1" value="&lt;span style=&quot;font-size: 12px;&quot;&gt;cco:Act&lt;/span&gt;" style="rounded=1;whiteSpace=wrap;html=1;align=center;verticalAlign=middle;fontFamily=Helvetica;fontSize=11;labelBackgroundColor=none;resizable=1;fillColor=#fff2cc;strokeColor=#d6b656;strokeWidth=2;arcSize=0;movable=1;rotatable=1;deletable=1;editable=1;locked=0;connectable=1;enumerate=0;" parent="1" vertex="1">
          <mxGeometry x="1510" y="350" width="150" height="60" as="geometry" />
        </mxCell>
        <mxCell id="K3G7bkNG8lY27Z329QrO-4" value="obo:has_participant" style="edgeStyle=orthogonalEdgeStyle;rounded=0;orthogonalLoop=1;jettySize=auto;html=1;exitX=0.5;exitY=1;exitDx=0;exitDy=0;entryX=1;entryY=0.5;entryDx=0;entryDy=0;" parent="1" source="K3G7bkNG8lY27Z329QrO-2" target="pety45B3u8wGdrX-bXSJ-11" edge="1">
          <mxGeometry relative="1" as="geometry" />
        </mxCell>
        <mxCell id="K3G7bkNG8lY27Z329QrO-5" value="rdfs:subClassOf" style="edgeStyle=orthogonalEdgeStyle;rounded=0;orthogonalLoop=1;jettySize=auto;html=1;" parent="1" source="K3G7bkNG8lY27Z329QrO-2" target="K3G7bkNG8lY27Z329QrO-1" edge="1">
          <mxGeometry relative="1" as="geometry" />
        </mxCell>
        <mxCell id="K3G7bkNG8lY27Z329QrO-2" value="&lt;span style=&quot;font-size: 12px;&quot;&gt;mds:Act of Playing Golf*&lt;/span&gt;" style="rounded=1;whiteSpace=wrap;html=1;align=center;verticalAlign=middle;fontFamily=Helvetica;fontSize=11;labelBackgroundColor=none;resizable=1;fillColor=#e1d5e7;strokeColor=#9673a6;strokeWidth=2;arcSize=0;movable=1;rotatable=1;deletable=1;editable=1;locked=0;connectable=1;enumerate=0;" parent="1" vertex="1">
          <mxGeometry x="1510" y="477.5" width="150" height="60" as="geometry" />
        </mxCell>
        <mxCell id="K3G7bkNG8lY27Z329QrO-6" value="Add a star (*) in case you don&#39;t want your term matched. Yes, this does mean refraining from using the star in class names and literals." style="text;html=1;align=center;verticalAlign=middle;whiteSpace=wrap;rounded=0;" parent="1" vertex="1">
          <mxGeometry x="1680" y="463.75" width="150" height="95" as="geometry" />
        </mxCell>
        <mxCell id="EhW_DGk6DGMliSEQohkm-1" value="&lt;span style=&quot;font-size: 12px;&quot;&gt;owl:ObjectProperty&lt;/span&gt;" style="rounded=1;whiteSpace=wrap;html=1;align=center;verticalAlign=middle;fontFamily=Helvetica;fontSize=11;labelBackgroundColor=none;resizable=1;fillColor=#fff2cc;strokeColor=#d6b656;strokeWidth=2;arcSize=0;movable=1;rotatable=1;deletable=1;editable=1;locked=0;connectable=1;enumerate=0;" parent="1" vertex="1">
          <mxGeometry x="2320" y="390" width="150" height="60" as="geometry" />
        </mxCell>
        <mxCell id="EhW_DGk6DGMliSEQohkm-3" value="rdf:type" style="edgeStyle=orthogonalEdgeStyle;rounded=0;orthogonalLoop=1;jettySize=auto;html=1;" parent="1" source="EhW_DGk6DGMliSEQohkm-2" target="EhW_DGk6DGMliSEQohkm-1" edge="1">
          <mxGeometry relative="1" as="geometry" />
        </mxCell>
        <mxCell id="EhW_DGk6DGMliSEQohkm-9" value="skos:definition" style="edgeStyle=orthogonalEdgeStyle;rounded=0;orthogonalLoop=1;jettySize=auto;html=1;" parent="1" source="EhW_DGk6DGMliSEQohkm-2" target="EhW_DGk6DGMliSEQohkm-8" edge="1">
          <mxGeometry relative="1" as="geometry" />
        </mxCell>
        <mxCell id="EhW_DGk6DGMliSEQohkm-2" value="mds:has_catchphrase" style="rounded=1;whiteSpace=wrap;html=1;align=center;verticalAlign=middle;fontFamily=Helvetica;fontSize=11;labelBackgroundColor=none;resizable=1;fillColor=#fff2cc;strokeColor=#d6b656;strokeWidth=2;arcSize=0;movable=1;rotatable=1;deletable=1;editable=1;locked=0;connectable=1;enumerate=0;" parent="1" vertex="1">
          <mxGeometry x="2320" y="520" width="150" height="60" as="geometry" />
        </mxCell>
        <mxCell id="EhW_DGk6DGMliSEQohkm-4" value="Object properties are defined just like classes. Make sure to use rdf:type." style="text;html=1;align=center;verticalAlign=middle;whiteSpace=wrap;rounded=0;" parent="1" vertex="1">
          <mxGeometry x="2490" y="388.75" width="130" height="62.5" as="geometry" />
        </mxCell>
        <mxCell id="EhW_DGk6DGMliSEQohkm-5" value="repeating terms become references. al for one and one for all!" style="text;html=1;align=center;verticalAlign=middle;whiteSpace=wrap;rounded=0;" parent="1" vertex="1">
          <mxGeometry x="2500" y="521.25" width="130" height="62.5" as="geometry" />
        </mxCell>
        <mxCell id="EhW_DGk6DGMliSEQohkm-8" value="&lt;font style=&quot;font-size: 8px;&quot; face=&quot;Helvetica&quot;&gt;&quot;a relation that holds between a person p and a linguistic expression e at time t iff p exhibits a pattern of verbal behavior that realizes e with sufficient frequency and consistency to constitute a characteristic identifier of p&#39;s communicative disposition within relevant social contexts.&quot;@en&lt;/font&gt;" style="rounded=1;whiteSpace=wrap;html=1;align=center;verticalAlign=middle;fontFamily=Helvetica;fontSize=11;labelBackgroundColor=none;resizable=1;strokeWidth=2;arcSize=0;movable=1;rotatable=1;deletable=1;editable=1;locked=0;connectable=1;enumerate=0;" parent="1" vertex="1">
          <mxGeometry x="2320" y="654.04" width="150" height="105.96" as="geometry" />
        </mxCell>
        <mxCell id="EhW_DGk6DGMliSEQohkm-10" value="property domains and ranges are inferred for now." style="text;html=1;align=center;verticalAlign=middle;whiteSpace=wrap;rounded=0;" parent="1" vertex="1">
          <mxGeometry x="2170" y="670" width="130" height="62.5" as="geometry" />
        </mxCell>
      </root>
    </mxGraphModel>
  </diagram>
</mxfile>
